<svg viewBox="0 0 148 42.016" height="42.016" width="148" xmlns:xlink="http://www.w3.org/1999/xlink" xmlns="http://www.w3.org/2000/svg" data-name="Grupo 1772" id="Grupo_1772">
  <defs>
    <clipPath id="clip-path">
      <rect fill="#5b909c" height="42.016" width="148" data-name="Rectángulo 99" id="Rectángulo_99"></rect>
    </clipPath>
  </defs>
  <g clip-path="url(#clip-path)" data-name="Grupo 172" id="Grupo_172">
    <path fill="#5b909c" transform="translate(0 -0.577)" d="M37.78,15.643l-2.757-.914L36,11.781A5.6,5.6,0,0,0,25.6,7.665l-.036-.012-.007,0-.037-.012A5.6,5.6,0,0,0,21.8,1.2h0a5.6,5.6,0,0,0-7.069,3.53l-.914,2.757-2.95-.978A5.6,5.6,0,0,0,6.753,16.9l-.012.037,0,.008-.012.036A5.6,5.6,0,0,0,.286,20.706h0a5.6,5.6,0,0,0,3.528,7.068l2.759.915-.978,2.95a5.6,5.6,0,0,0,10.392,4.114l.038.013.008,0,.038.013a5.6,5.6,0,0,0,3.721,6.438h0a5.6,5.6,0,0,0,7.069-3.529h0l.915-2.759,2.948.977a5.6,5.6,0,0,0,4.114-10.393l.012-.036,0-.01.012-.037a5.6,5.6,0,0,0,6.439-3.722v0a5.6,5.6,0,0,0-3.529-7.068m-5.7,4.289A5.6,5.6,0,0,0,26.7,23.768l0,.01a5.593,5.593,0,0,0,3.115,6.911l-1.2-.4a4.64,4.64,0,0,0-5.864,2.944h0l-.334,1.006a5.5,5.5,0,0,0,.156-1.255,5.6,5.6,0,0,0-3.838-5.373l-.008,0a5.589,5.589,0,0,0-6.911,3.115l.4-1.2a4.639,4.639,0,0,0-2.943-5.864h0l-1.021-.339a5.6,5.6,0,0,0,6.644-3.676l0-.008A5.59,5.59,0,0,0,11.78,12.73l1.2.4a4.64,4.64,0,0,0,5.864-2.944l.34-1.024A5.6,5.6,0,0,0,22.857,15.8l.008,0a5.59,5.59,0,0,0,6.918-3.131l-.4,1.215a4.639,4.639,0,0,0,2.943,5.863l1.008.335a5.5,5.5,0,0,0-1.255-.157" data-name="Trazado 438" id="Trazado_438"></path>
    <path fill="#5b909c" transform="translate(-78.824 -2.563)" d="M140.865,6.821q.095,1.575.22,4.062t.3,5.462q.172,2.976.362,6.03a1.093,1.093,0,0,0,.425.866,1.491,1.491,0,0,0,.834.237,2.531,2.531,0,0,0,.724-.095,2.235,2.235,0,0,0,.6-.284q-.032-.881-.142-2.377t-.236-3.354q-.126-1.857-.267-3.778t-.3-3.668q-.158-1.747-.315-3.037t-.283-1.826a1.127,1.127,0,0,0-.551-.771,2.368,2.368,0,0,0-1.149-.237,4.674,4.674,0,0,0-.819.079,2.35,2.35,0,0,0-.724.236q-.945,2.173-2.314,5.259t-2.755,6.422h-.126q-.725-1.668-1.511-3.557T131.23,8.711q-.819-1.889-1.637-3.5a1.913,1.913,0,0,0-.787-.881,2.471,2.471,0,0,0-1.228-.284,2.868,2.868,0,0,0-1.071.189,2.539,2.539,0,0,0-.724.409q-.158,1.764-.331,3.952t-.331,4.439q-.158,2.252-.268,4.235t-.189,3.353q-.079,1.37-.079,1.748a1.118,1.118,0,0,0,.284.8,1.31,1.31,0,0,0,.976.3,3.091,3.091,0,0,0,.645-.064,4.545,4.545,0,0,0,.488-.126q.158-2.266.268-4.266t.237-3.9q.125-1.9.236-3.95t.2-4.409h.126q.756,1.921,2,4.849t2.912,6.455a.965.965,0,0,0,.551.5,2.376,2.376,0,0,0,.9.158,2.42,2.42,0,0,0,.8-.126,2.289,2.289,0,0,0,.583-.284q1.857-4.312,3.054-7.037t1.889-4.456Z" data-name="Trazado 439" id="Trazado_439"></path>
    <path fill="#5b909c" transform="translate(-144.083 -9.939)" d="M230.252,30.6V20.127a1.978,1.978,0,0,1,1.456-1.908l.37-.1a9.748,9.748,0,0,1,2.516-.3,8.529,8.529,0,0,1,1.029.064c.344.041.622.086.832.128a1.4,1.4,0,0,0,.253-.457,1.8,1.8,0,0,0,.094-.583q0-1.259-2.519-1.259a11.793,11.793,0,0,0-3.146.391,7.031,7.031,0,0,0-2.238.929,3.228,3.228,0,0,0-1.165,2.9v9.761a1.032,1.032,0,0,0,.346.864,1.625,1.625,0,0,0,1.011.269,3,3,0,0,0,.689-.078,3.917,3.917,0,0,0,.473-.143" data-name="Trazado 440" id="Trazado_440"></path>
    <path fill="#5b909c" transform="translate(-163.284)" d="M258.747,4.848a2.81,2.81,0,0,0,.373.18l2.6-2.294A2.1,2.1,0,0,0,262.45,1.6a1.129,1.129,0,0,0-.317-1.048,1.487,1.487,0,0,0-.555-.363q-.308-.113-.54-.191l-2.626,3.141a1.234,1.234,0,0,0-.331.743.89.89,0,0,0,.3.674,1.738,1.738,0,0,0,.364.289" data-name="Trazado 441" id="Trazado_441"></path>
    <path fill="#5b909c" transform="translate(-162.405 -10.48)" d="M258.108,31.457a2.939,2.939,0,0,0,.664-.078l.44-.11V17.73a1.093,1.093,0,0,0-.347-.868,1.579,1.579,0,0,0-1.039-.3,3.124,3.124,0,0,0-.66.065,2.825,2.825,0,0,0-.473.122v13.54a1.054,1.054,0,0,0,.363.868,1.635,1.635,0,0,0,1.052.3" data-name="Trazado 442" id="Trazado_442"></path>
    <path fill="#5b909c" transform="translate(-115.455 -9.939)" d="M191.737,28.562a4.711,4.711,0,0,1-2.071.435,4.133,4.133,0,0,1-3.387-1.48,6.345,6.345,0,0,1-1.211-4.125,6.213,6.213,0,0,1,1.243-4.108,4.131,4.131,0,0,1,3.354-1.5,4.069,4.069,0,0,1,3.35,1.5,5.879,5.879,0,0,1,1.19,3.44c.012.114.017.228.021.346s0,.212,0,.322,0,.216,0,.322v6.008a1.086,1.086,0,0,0,.375.889,1.672,1.672,0,0,0,1.08.306,3.084,3.084,0,0,0,.681-.078c.212-.057.367-.094.448-.114V23.311a.17.17,0,0,0,0-.045,8.566,8.566,0,0,0-.893-3.953,6.507,6.507,0,0,0-2.5-2.658,7.924,7.924,0,0,0-7.508,0,6.443,6.443,0,0,0-2.519,2.658,8.684,8.684,0,0,0-.9,4.08,8.791,8.791,0,0,0,.884,4.06,6.357,6.357,0,0,0,2.5,2.677,8.108,8.108,0,0,0,7.2.2v-.9a.943.943,0,0,0-1.332-.866" data-name="Trazado 443" id="Trazado_443"></path>
    <path fill="#5b909c" transform="translate(-170.743 -9.939)" d="M280.457,30.33v-.9a.943.943,0,0,0-1.332-.866,4.719,4.719,0,0,1-2.072.435,4.131,4.131,0,0,1-3.387-1.48,6.343,6.343,0,0,1-1.211-4.125,6.212,6.212,0,0,1,1.243-4.108,4.129,4.129,0,0,1,3.354-1.5,4.069,4.069,0,0,1,3.35,1.5,5.88,5.88,0,0,1,1.19,3.44c.012.114.016.228.02.346s0,.212,0,.322,0,.216,0,.322v6.008a1.084,1.084,0,0,0,.375.888,1.672,1.672,0,0,0,1.08.306,3.083,3.083,0,0,0,.68-.078c.212-.057.367-.094.449-.114V23.311a.168.168,0,0,0,0-.045,8.557,8.557,0,0,0-.893-3.953,6.508,6.508,0,0,0-2.5-2.658,7.924,7.924,0,0,0-7.507,0,6.442,6.442,0,0,0-2.519,2.658,8.684,8.684,0,0,0-.9,4.08,8.79,8.79,0,0,0,.885,4.059,6.357,6.357,0,0,0,2.5,2.678,8.111,8.111,0,0,0,7.2.2" data-name="Trazado 450" id="Trazado_450"></path>
    <g data-name="Grupo 243" id="Grupo_243">
      <path fill="#5b909c" transform="translate(-76.709 -37.716)" d="M130.249,67.359l-1.669-.536a4.245,4.245,0,0,1-1.228-.551.915.915,0,0,1-.409-.771,1.147,1.147,0,0,1,.661-.992,4.205,4.205,0,0,1,2.078-.394,9.318,9.318,0,0,1,2.55.331,7.141,7.141,0,0,1,1.858.771,3.9,3.9,0,0,0,.913-.991,2.517,2.517,0,0,0,.378-1.4,2.287,2.287,0,0,0-.472-1.433,3.5,3.5,0,0,0-1.307-1.007,7.48,7.48,0,0,0-2-.583,15.8,15.8,0,0,0-2.519-.189,9.2,9.2,0,0,0-5.778,1.606,5.152,5.152,0,0,0-2.062,4.282,5.431,5.431,0,0,0,.457,2.346,4.883,4.883,0,0,0,1.275,1.653,7.709,7.709,0,0,0,1.952,1.181q1.133.489,2.519.961l1.322.44a6.54,6.54,0,0,1,1.417.645,1.079,1.079,0,0,1,.5.961,1.363,1.363,0,0,1-.63,1.1,3.744,3.744,0,0,1-2.173.472,7.515,7.515,0,0,1-2.786-.5,8.51,8.51,0,0,1-2.157-1.2,4.094,4.094,0,0,0-1.165.992,2.362,2.362,0,0,0-.536,1.559,2.488,2.488,0,0,0,.519,1.559,4.014,4.014,0,0,0,1.448,1.134,8.545,8.545,0,0,0,2.173.693,14.423,14.423,0,0,0,2.692.236q4.092,0,6.2-1.653a5.24,5.24,0,0,0,2.109-4.329,5.148,5.148,0,0,0-1.59-3.983,12.081,12.081,0,0,0-4.55-2.408" data-name="Trazado 444" id="Trazado_444"></path>
      <path fill="#5b909c" transform="translate(-135.202 -38.165)" d="M218.262,60.761a2.214,2.214,0,0,0-.929-.352,8.029,8.029,0,0,0-1.244-.087,9.132,9.132,0,0,0-1.369.1q-.678.1-1.023.161V77.568a2.907,2.907,0,0,0,.2,1.186,1.7,1.7,0,0,0,.583.717,2.206,2.206,0,0,0,.929.352,7.965,7.965,0,0,0,1.243.087,9.144,9.144,0,0,0,1.37-.1q.677-.1,1.023-.161V62.665a2.923,2.923,0,0,0-.2-1.186,1.713,1.713,0,0,0-.583-.717" data-name="Trazado 445" id="Trazado_445"></path>
      <path fill="#5b909c" transform="translate(-146.77 -44.331)" d="M246.2,72.289a7.6,7.6,0,0,0-2.6-1.637,9.294,9.294,0,0,0-3.369-.583,9.528,9.528,0,0,0-3.369.567,7.421,7.421,0,0,0-2.6,1.622,7.237,7.237,0,0,0-1.685,2.566,9.877,9.877,0,0,0,0,6.769,7.231,7.231,0,0,0,1.685,2.566,7.425,7.425,0,0,0,2.6,1.622,9.542,9.542,0,0,0,3.369.567,10.043,10.043,0,0,0,3.369-.536,7.166,7.166,0,0,0,2.6-1.574,7.071,7.071,0,0,0,1.685-2.566,9.493,9.493,0,0,0,.6-3.479,9.01,9.01,0,0,0-.6-3.338,7.235,7.235,0,0,0-1.685-2.566m-3.9,8.831a2.31,2.31,0,0,1-2.031,1.039,2.4,2.4,0,0,1-2.062-1.023,6.224,6.224,0,0,1-.016-5.856,2.559,2.559,0,0,1,4.093,0A5,5,0,0,1,243,78.193a5.159,5.159,0,0,1-.708,2.928" data-name="Trazado 446" id="Trazado_446"></path>
      <path fill="#5b909c" transform="translate(-177.335 -44.331)" d="M301.684,71.376a5.994,5.994,0,0,0-2.047-.992,9.522,9.522,0,0,0-5.195.094,9.3,9.3,0,0,0-2.125,1.04,6.228,6.228,0,0,0-2.157-1.087,9.041,9.041,0,0,0-2.534-.362,11.618,11.618,0,0,0-3.322.472,9.062,9.062,0,0,0-2.66,1.228,4.108,4.108,0,0,0-.992.945,2.27,2.27,0,0,0-.362,1.353v9.509a3.333,3.333,0,0,0,.2,1.275,1.817,1.817,0,0,0,.582.771,2.134,2.134,0,0,0,.929.378,7.427,7.427,0,0,0,1.244.094,10.169,10.169,0,0,0,1.4-.094,7.352,7.352,0,0,0,.992-.19V74.76a7.33,7.33,0,0,1,.693-.331,2.5,2.5,0,0,1,.976-.173,2.314,2.314,0,0,1,1.4.425,1.58,1.58,0,0,1,.583,1.369v7.525a3.34,3.34,0,0,0,.2,1.275,1.814,1.814,0,0,0,.583.771,2.129,2.129,0,0,0,.929.378,7.424,7.424,0,0,0,1.244.094,9.928,9.928,0,0,0,1.37-.094,8.873,8.873,0,0,0,1.023-.19V75.123a.974.974,0,0,0-.031-.236,2.686,2.686,0,0,1,.756-.425,2.5,2.5,0,0,1,.944-.2,2.269,2.269,0,0,1,1.448.425,1.644,1.644,0,0,1,.535,1.369v7.525a3.332,3.332,0,0,0,.2,1.275,1.814,1.814,0,0,0,.582.771,2.134,2.134,0,0,0,.929.378,7.424,7.424,0,0,0,1.244.094,10.158,10.158,0,0,0,1.4-.094,7.372,7.372,0,0,0,.992-.19V75.894a6.274,6.274,0,0,0-.535-2.723,4.8,4.8,0,0,0-1.432-1.794" data-name="Trazado 447" id="Trazado_447"></path>
      <path fill="#5b909c" transform="translate(-219.721 -44.331)" d="M360.556,71.959a7.2,7.2,0,0,0-2.36-1.386,8.707,8.707,0,0,0-3.04-.505,9.441,9.441,0,0,0-2.894.457,7.123,7.123,0,0,0-2.519,1.419,7.047,7.047,0,0,0-1.781,2.453,8.6,8.6,0,0,0-.677,3.574,9.256,9.256,0,0,0,.677,3.685,7.257,7.257,0,0,0,1.858,2.613,7.746,7.746,0,0,0,2.771,1.557,11.038,11.038,0,0,0,3.448.522,16.451,16.451,0,0,0,2.36-.187,7.081,7.081,0,0,0,2.266-.725,2.309,2.309,0,0,0,.978-3.305,2.689,2.689,0,0,0-.852-.885,7.571,7.571,0,0,1-1.875.775,8.783,8.783,0,0,1-2.437.33,5.558,5.558,0,0,1-2.458-.522c-.037-.016-.069-.037-.106-.057-.073-.037-.143-.078-.208-.118-.045-.029-.09-.061-.134-.09s-.078-.057-.114-.086-.09-.073-.13-.11a.907.907,0,0,1-.126-.122,1,1,0,0,1-.114-.122c-.037-.044-.069-.09-.106-.134a2.05,2.05,0,0,1-.237-.383c-.017-.029-.029-.061-.045-.09-.025-.057-.049-.114-.069-.175a.281.281,0,0,1-.024-.069.132.132,0,0,1-.017-.036,6.858,6.858,0,0,1-.367-3.481s0,0,0-.008a.451.451,0,0,1,.008-.073,3.659,3.659,0,0,1,.2-.921,2.668,2.668,0,0,1,.738-1.1,2.774,2.774,0,0,1,.681-.428,3.128,3.128,0,0,1,1.3-.253,2.306,2.306,0,0,1,1.765.632,2.388,2.388,0,0,1,.693,1.26l-3.025.493a1.269,1.269,0,0,0-1.066,1.233c0,.147,0,.3.007.458v.033a6.692,6.692,0,0,0,.077.729,5.674,5.674,0,0,0,.346,1.255l6.432-.962a3.014,3.014,0,0,0,1.667-.721,2.152,2.152,0,0,0,.6-1.638,6.477,6.477,0,0,0-.55-2.678,6.206,6.206,0,0,0-1.545-2.107" data-name="Trazado 448" id="Trazado_448"></path>
      <path fill="#5b909c" transform="translate(-103.747 -44.331)" d="M178.2,72.29a7.571,7.571,0,0,0-2.6-1.638,9.323,9.323,0,0,0-3.371-.583,9.483,9.483,0,0,0-3.366.566,7.458,7.458,0,0,0-2.6,1.622,7.3,7.3,0,0,0-1.683,2.564,9.861,9.861,0,0,0,0,6.77,7.236,7.236,0,0,0,1.683,2.568,7.391,7.391,0,0,0,2.6,1.622,9.478,9.478,0,0,0,3.366.567,10.759,10.759,0,0,0,1.61-.114v-2.58a1.515,1.515,0,0,0-1.558-1.5h-.019a2.4,2.4,0,0,1-2.062-1.019,6.21,6.21,0,0,1-.017-5.856,2.558,2.558,0,0,1,4.092,0,4.688,4.688,0,0,1,.717,2.645H175v6.358a1.976,1.976,0,0,0,.2.9,1.468,1.468,0,0,0,.542.575.153.153,0,0,0,.041.029,2.425,2.425,0,0,0,.933.3,9.464,9.464,0,0,0,1.247.073,12.354,12.354,0,0,0,1.459-.086c.453-.057.795-.1,1.023-.134V79.007c.021-.265.029-.538.029-.815a9.01,9.01,0,0,0-.6-3.338A7.2,7.2,0,0,0,178.2,72.29" data-name="Trazado 449" id="Trazado_449"></path>
      <path fill="#5b909c" transform="translate(-230.158 -31.77)" d="M364.83,55.979a3.329,3.329,0,0,0,.644.382l3.308-1.991a2.447,2.447,0,0,0,1.107-1.255,1.828,1.828,0,0,0-.412-1.732,2.643,2.643,0,0,0-.925-.785,5.449,5.449,0,0,0-.916-.384l-3.27,2.905a1.619,1.619,0,0,0-.577,1.019,1.731,1.731,0,0,0,.422,1.221,2.808,2.808,0,0,0,.618.621" data-name="Trazado 451" id="Trazado_451"></path>
    </g>
    <path fill="#5b909c" transform="translate(-248.24 -42.121)" d="M395.98,67.543a1.779,1.779,0,0,0-.725-.716,1.933,1.933,0,0,0-1.907,0,1.791,1.791,0,0,0-.726.716,1.939,1.939,0,0,0,0,1.937,1.812,1.812,0,0,0,.718.719,1.95,1.95,0,0,0,1.931,0,1.8,1.8,0,0,0,.717-.719,1.96,1.96,0,0,0,.256-.964,1.98,1.98,0,0,0-.26-.973m-.275,1.776a1.507,1.507,0,0,1-.6.6,1.611,1.611,0,0,1-1.609,0,1.511,1.511,0,0,1-.6-.6,1.61,1.61,0,0,1,0-1.614,1.5,1.5,0,0,1,.6-.6,1.612,1.612,0,0,1,1.59,0,1.5,1.5,0,0,1,.606.6,1.62,1.62,0,0,1,0,1.614" data-name="Trazado 452" id="Trazado_452"></path>
    <path fill="#5b909c" transform="translate(-250.117 -43.717)" d="M396.518,70.362a.577.577,0,0,0-.177-.111.648.648,0,0,0,.433-.19.557.557,0,0,0,.163-.4.538.538,0,0,0-.1-.307.525.525,0,0,0-.262-.2,1.773,1.773,0,0,0-.532-.057h-.718v2.087h.337V70.3h.2a.435.435,0,0,1,.27.071,1.7,1.7,0,0,1,.352.486l.185.33h.411l-.255-.41a2.327,2.327,0,0,0-.309-.413m-.444-.353h-.409v-.63h.383a1.068,1.068,0,0,1,.338.036.315.315,0,0,1,.142.109.3.3,0,0,1-.055.4.664.664,0,0,1-.4.087" data-name="Trazado 453" id="Trazado_453"></path>
  </g>
</svg>
