<?xml version="1.0" standalone="no"?>
<!DOCTYPE svg PUBLIC "-//W3C//DTD SVG 20010904//EN"
 "http://www.w3.org/TR/2001/REC-SVG-20010904/DTD/svg10.dtd">
<svg version="1.0" xmlns="http://www.w3.org/2000/svg"
 width="600.000000pt" height="145.000000pt" viewBox="0 0 600.000000 145.000000"
 preserveAspectRatio="xMidYMid meet">

<g transform="translate(0.000000,145.000000) scale(0.100000,-0.100000)"
fill="#000000" stroke="none">
<path d="M909 1296 c-125 -44 -192 -138 -192 -268 0 -112 52 -195 157 -251 38
-20 56 -22 266 -25 124 -1 235 -5 248 -7 38 -9 62 -41 62 -84 0 -50 -24 -80
-75 -91 -22 -5 -282 -10 -577 -10 l-538 0 0 -84 0 -83 77 -7 c42 -3 304 -6
582 -6 l506 0 51 24 c60 28 113 78 140 132 14 29 19 60 19 124 0 99 -19 144
-84 203 -75 67 -89 70 -364 76 -246 6 -249 6 -268 30 -28 34 -25 96 6 126 l24
25 301 0 300 0 0 95 0 95 -302 0 c-222 -1 -313 -4 -339 -14z"/>
<path d="M1758 1303 c-17 -4 -18 -34 -18 -458 0 -404 2 -454 16 -459 9 -3 49
-6 90 -6 l74 0 0 465 0 465 -72 -1 c-40 -1 -81 -3 -90 -6z"/>
<path d="M2213 1303 l-73 -4 0 -453 0 -453 46 -7 c26 -3 64 -6 85 -6 l39 0 0
369 c0 204 3 372 8 374 4 3 118 3 255 0 241 -6 248 -7 272 -29 34 -32 34 -91
0 -128 -23 -25 -28 -26 -137 -27 -62 -1 -143 -4 -179 -8 l-66 -6 147 -270 147
-270 92 -3 c50 -1 91 0 91 3 0 2 -43 81 -95 175 -52 94 -95 175 -95 180 0 6
15 10 33 10 147 0 277 132 277 280 0 74 -28 140 -84 196 -81 80 -104 84 -425
82 -146 -1 -299 -4 -338 -5z"/>
<path d="M3177 1303 c-16 -4 -17 -32 -15 -461 l3 -457 88 -3 87 -3 0 466 0
465 -72 -1 c-40 -1 -81 -3 -91 -6z"/>
<path d="M3571 1303 l-73 -4 5 -272 c5 -286 8 -312 58 -408 31 -61 134 -160
199 -192 226 -110 497 -21 613 201 49 94 57 152 57 434 l0 248 -95 0 -95 0 0
-251 c0 -145 -5 -268 -11 -293 -16 -66 -75 -136 -144 -171 -138 -71 -308 -15
-376 123 -23 45 -24 59 -29 317 -4 230 -7 270 -20 270 -8 1 -48 0 -89 -2z"/>
<path d="M4505 1300 c-3 -6 41 -74 99 -153 59 -78 183 -245 276 -371 94 -126
170 -233 170 -238 0 -4 -24 -8 -53 -8 l-53 0 -63 -86 c-34 -47 -60 -88 -58
-90 7 -7 617 -17 617 -11 0 4 -128 177 -285 385 -157 208 -285 382 -285 385 0
4 27 7 59 7 l59 0 66 89 c36 48 66 91 66 95 0 11 -608 7 -615 -4z"/>
<path d="M5107 1176 c-53 -74 -97 -140 -97 -147 0 -20 99 -151 109 -144 5 2
42 49 82 102 41 54 111 146 156 206 46 59 83 109 83 112 0 3 -53 5 -118 5
l-117 0 -98 -134z"/>
<path d="M4579 478 c-122 -167 -233 -316 -246 -331 -13 -16 -23 -33 -23 -38 0
-5 50 -9 113 -8 l112 0 185 245 c102 135 189 253 194 263 6 15 -5 36 -49 95
-32 42 -59 76 -61 76 -1 0 -103 -136 -225 -302z"/>
</g>
</svg>
